<svg xmlns="http://www.w3.org/2000/svg" width="280" height="280" viewBox="0 0 280 280">
  <g fill="none" fill-rule="evenodd">
    <circle cx="140" cy="140" r="140" fill="#9C27B0" opacity="0.1"/>
    <g transform="translate(60, 70)">
      <rect width="160" height="100" rx="10" fill="#9C27B0" opacity="0.7"/>
      <rect x="10" y="10" width="140" height="80" rx="5" fill="#FFFFFF"/>
      
      <!-- Playlist Items -->
      <rect x="20" y="25" width="120" height="10" rx="2" fill="#9C27B0" opacity="0.2"/>
      <rect x="20" y="45" width="120" height="10" rx="2" fill="#9C27B0" opacity="0.2"/>
      <rect x="20" y="65" width="120" height="10" rx="2" fill="#9C27B0" opacity="0.2"/>
      
      <!-- Play Icons -->
      <circle cx="25" cy="30" r="5" fill="#9C27B0"/>
      <circle cx="25" cy="50" r="5" fill="#9C27B0"/>
      <circle cx="25" cy="70" r="5" fill="#9C27B0"/>
      
      <path d="M27,28 L27,32 L30,30 L27,28 Z" fill="#FFFFFF"/>
      <path d="M27,48 L27,52 L30,50 L27,48 Z" fill="#FFFFFF"/>
      <path d="M27,68 L27,72 L30,70 L27,68 Z" fill="#FFFFFF"/>
      
      <!-- Share Button -->
      <circle cx="140" cy="50" r="15" fill="#9C27B0"/>
      <path d="M140,45 L135,50 L140,55 L145,50 L140,45 Z" fill="#FFFFFF"/>
      <line x1="140" y1="50" x2="140" y2="60" stroke="#FFFFFF" stroke-width="2"/>
      
      <!-- Connect Icons -->
      <circle cx="60" cy="140" r="20" fill="#9C27B0" opacity="0.6"/>
      <circle cx="120" cy="140" r="20" fill="#9C27B0" opacity="0.6"/>
      
      <path stroke="#9C27B0" stroke-width="3" d="M80,140 L100,140" stroke-dasharray="5,5"/>
    </g>
  </g>
</svg>