<svg xmlns="http://www.w3.org/2000/svg" width="280" height="280" viewBox="0 0 280 280">
  <g fill="none" fill-rule="evenodd">
    <circle cx="140" cy="140" r="140" fill="#6200EE" opacity="0.1"/>
    <g transform="translate(70, 60)">
      <path fill="#6200EE" d="M100,20 C127.614,20 150,42.386 150,70 C150,97.614 127.614,120 100,120 C72.386,120 50,97.614 50,70 C50,42.386 72.386,20 100,20 Z"/>
      <circle cx="100" cy="70" r="25" fill="#FFFFFF"/>
      <path fill="#6200EE" d="M100,55 C108.284,55 115,61.716 115,70 C115,78.284 108.284,85 100,85 C91.716,85 85,78.284 85,70 C85,61.716 91.716,55 100,55 Z"/>
      <path fill="#6200EE" d="M130,40 C144.912,40 157,52.088 157,67 C157,81.912 144.912,94 130,94 C115.088,94 103,81.912 103,67 C103,52.088 115.088,40 130,40 Z" opacity="0.7"/>
      <path fill="#6200EE" d="M70,40 C84.912,40 97,52.088 97,67 C97,81.912 84.912,94 70,94 C55.088,94 43,81.912 43,67 C43,52.088 55.088,40 70,40 Z" opacity="0.7"/>
      <path fill="#6200EE" d="M100,100 C74.624,100 54,119.624 54,144 L146,144 C146,119.624 125.376,100 100,100 Z" opacity="0.5"/>
      <path stroke="#6200EE" stroke-width="4" d="M50,130 C41.716,130 35,123.284 35,115 C35,106.716 41.716,100 50,100" stroke-linecap="round"/>
      <path stroke="#6200EE" stroke-width="4" d="M150,130 C158.284,130 165,123.284 165,115 C165,106.716 158.284,100 150,100" stroke-linecap="round"/>
      <line x1="50" y1="135" x2="50" y2="160" stroke="#6200EE" stroke-width="4" stroke-linecap="round"/>
      <line x1="150" y1="135" x2="150" y2="160" stroke="#6200EE" stroke-width="4" stroke-linecap="round"/>
    </g>
  </g>
</svg>