<svg xmlns="http://www.w3.org/2000/svg" width="280" height="280" viewBox="0 0 280 280">
  <g fill="none" fill-rule="evenodd">
    <circle cx="140" cy="140" r="140" fill="#2196F3" opacity="0.1"/>
    <g transform="translate(70, 60)">
      <!-- Left Heart -->
      <path fill="#2196F3" opacity="0.7" d="M60,60 C60,40 40,30 25,45 C10,60 30,90 60,110 L60,60 Z"/>
      
      <!-- Right Heart -->
      <path fill="#2196F3" opacity="0.7" d="M80,60 C80,40 100,30 115,45 C130,60 110,90 80,110 L80,60 Z"/>
      
      <!-- Combined Heart -->
      <path fill="#2196F3" d="M70,120 C40,100 10,70 25,45 C40,20 70,40 70,60 C70,40 100,20 115,45 C130,70 100,100 70,120 Z"/>
      
      <!-- Music Notes -->
      <circle cx="40" cy="50" r="8" fill="#FFFFFF"/>
      <path stroke="#FFFFFF" stroke-width="2" d="M40,50 L40,30" stroke-linecap="round"/>
      <path stroke="#FFFFFF" stroke-width="2" d="M40,30 L50,25" stroke-linecap="round"/>
      
      <circle cx="100" cy="50" r="8" fill="#FFFFFF"/>
      <path stroke="#FFFFFF" stroke-width="2" d="M100,50 L100,30" stroke-linecap="round"/>
      <path stroke="#FFFFFF" stroke-width="2" d="M100,30 L110,25" stroke-linecap="round"/>
      
      <!-- Connection Lines -->
      <path stroke="#2196F3" stroke-width="3" d="M70,140 C30,160 30,180 70,180 C110,180 110,160 70,140" stroke-linecap="round"/>
      
      <!-- Stars/Sparkles -->
      <circle cx="30" cy="100" r="3" fill="#FFFFFF"/>
      <circle cx="110" cy="100" r="3" fill="#FFFFFF"/>
      <circle cx="70" cy="150" r="3" fill="#FFFFFF"/>
      <circle cx="40" cy="130" r="3" fill="#FFFFFF"/>
      <circle cx="100" cy="130" r="3" fill="#FFFFFF"/>
    </g>
  </g>
</svg>